<mxfile host="app.diagrams.net" agent="Mozilla/5.0 (Macintosh; Intel Mac OS X 10_15_7) AppleWebKit/537.36 (KHTML, like Gecko) Chrome/131.0.0.0 Safari/537.36" version="25.0.3">
  <diagram name="第 1 页" id="d-ULOR1jQO1ShSCfsdXq">
    <mxGraphModel dx="1911" dy="1208" grid="0" gridSize="10" guides="1" tooltips="1" connect="1" arrows="1" fold="1" page="1" pageScale="1" pageWidth="3300" pageHeight="4681" math="0" shadow="0">
      <root>
        <mxCell id="0" />
        <mxCell id="1" parent="0" />
        <mxCell id="Mr5ERWoBqYJglzLAQV7F-3" value="" style="edgeStyle=orthogonalEdgeStyle;rounded=0;orthogonalLoop=1;jettySize=auto;html=1;fontSize=13;" edge="1" parent="1" source="Mr5ERWoBqYJglzLAQV7F-1" target="Mr5ERWoBqYJglzLAQV7F-2">
          <mxGeometry relative="1" as="geometry" />
        </mxCell>
        <mxCell id="Mr5ERWoBqYJglzLAQV7F-4" value="memoizedState" style="edgeLabel;html=1;align=center;verticalAlign=middle;resizable=0;points=[];fontSize=13;" vertex="1" connectable="0" parent="Mr5ERWoBqYJglzLAQV7F-3">
          <mxGeometry x="-0.24" y="-3" relative="1" as="geometry">
            <mxPoint x="3" y="12" as="offset" />
          </mxGeometry>
        </mxCell>
        <mxCell id="Mr5ERWoBqYJglzLAQV7F-30" value="" style="edgeStyle=orthogonalEdgeStyle;rounded=0;orthogonalLoop=1;jettySize=auto;html=1;fontSize=13;" edge="1" parent="1" source="Mr5ERWoBqYJglzLAQV7F-1" target="Mr5ERWoBqYJglzLAQV7F-29">
          <mxGeometry relative="1" as="geometry" />
        </mxCell>
        <mxCell id="Mr5ERWoBqYJglzLAQV7F-32" value="&lt;font&gt;updateQueue&lt;/font&gt;" style="edgeLabel;html=1;align=center;verticalAlign=middle;resizable=0;points=[];fontSize=13;" vertex="1" connectable="0" parent="Mr5ERWoBqYJglzLAQV7F-30">
          <mxGeometry x="-0.1158" y="3" relative="1" as="geometry">
            <mxPoint as="offset" />
          </mxGeometry>
        </mxCell>
        <mxCell id="Mr5ERWoBqYJglzLAQV7F-1" value="函数fiber节点" style="rounded=1;whiteSpace=wrap;html=1;fillColor=#f8cecc;strokeColor=#b85450;fontSize=13;" vertex="1" parent="1">
          <mxGeometry x="693.5" y="463" width="155" height="76" as="geometry" />
        </mxCell>
        <mxCell id="Mr5ERWoBqYJglzLAQV7F-10" value="" style="edgeStyle=orthogonalEdgeStyle;rounded=0;orthogonalLoop=1;jettySize=auto;html=1;fontSize=13;" edge="1" parent="1" source="Mr5ERWoBqYJglzLAQV7F-2" target="Mr5ERWoBqYJglzLAQV7F-9">
          <mxGeometry relative="1" as="geometry" />
        </mxCell>
        <mxCell id="Mr5ERWoBqYJglzLAQV7F-47" value="next" style="edgeLabel;html=1;align=center;verticalAlign=middle;resizable=0;points=[];fontSize=13;" vertex="1" connectable="0" parent="Mr5ERWoBqYJglzLAQV7F-10">
          <mxGeometry relative="1" as="geometry">
            <mxPoint y="1" as="offset" />
          </mxGeometry>
        </mxCell>
        <mxCell id="Mr5ERWoBqYJglzLAQV7F-52" value="" style="edgeStyle=orthogonalEdgeStyle;rounded=0;orthogonalLoop=1;jettySize=auto;html=1;fontSize=13;" edge="1" parent="1" source="Mr5ERWoBqYJglzLAQV7F-2" target="Mr5ERWoBqYJglzLAQV7F-51">
          <mxGeometry relative="1" as="geometry" />
        </mxCell>
        <mxCell id="Mr5ERWoBqYJglzLAQV7F-53" value="&lt;span style=&quot;text-align: left; text-wrap-mode: wrap; background-color: rgb(251, 251, 251);&quot;&gt;memoizedState&lt;/span&gt;" style="edgeLabel;html=1;align=center;verticalAlign=middle;resizable=0;points=[];fontSize=13;" vertex="1" connectable="0" parent="Mr5ERWoBqYJglzLAQV7F-52">
          <mxGeometry x="-0.0487" y="2" relative="1" as="geometry">
            <mxPoint y="1" as="offset" />
          </mxGeometry>
        </mxCell>
        <mxCell id="Mr5ERWoBqYJglzLAQV7F-56" style="edgeStyle=orthogonalEdgeStyle;rounded=0;orthogonalLoop=1;jettySize=auto;html=1;fontSize=13;" edge="1" parent="1" source="Mr5ERWoBqYJglzLAQV7F-2" target="Mr5ERWoBqYJglzLAQV7F-55">
          <mxGeometry relative="1" as="geometry" />
        </mxCell>
        <mxCell id="Mr5ERWoBqYJglzLAQV7F-57" value="&lt;font&gt;queue&lt;/font&gt;" style="edgeLabel;html=1;align=center;verticalAlign=middle;resizable=0;points=[];fontSize=13;" vertex="1" connectable="0" parent="Mr5ERWoBqYJglzLAQV7F-56">
          <mxGeometry x="0.5481" y="1" relative="1" as="geometry">
            <mxPoint as="offset" />
          </mxGeometry>
        </mxCell>
        <mxCell id="Mr5ERWoBqYJglzLAQV7F-2" value="useState" style="whiteSpace=wrap;html=1;rounded=1;fillColor=#fff2cc;strokeColor=#d6b656;fontSize=13;" vertex="1" parent="1">
          <mxGeometry x="696" y="650" width="150" height="50" as="geometry" />
        </mxCell>
        <mxCell id="Mr5ERWoBqYJglzLAQV7F-8" value="&lt;div&gt;&lt;font style=&quot;font-size: 14px;&quot;&gt;// 一个hook节点的结构&lt;/font&gt;&lt;/div&gt;&lt;div&gt;&lt;font style=&quot;font-size: 14px;&quot;&gt;const hook: Hook = {&lt;/font&gt;&lt;/div&gt;&lt;div&gt;&lt;font style=&quot;font-size: 14px;&quot;&gt;&amp;nbsp; &amp;nbsp; memoizedState: null,&lt;/font&gt;&lt;/div&gt;&lt;div&gt;&lt;span style=&quot;background-color: initial;&quot;&gt;&lt;font style=&quot;font-size: 14px;&quot;&gt;&amp;nbsp; &amp;nbsp; baseState: null,&lt;/font&gt;&lt;/span&gt;&lt;/div&gt;&lt;div&gt;&lt;font style=&quot;font-size: 14px;&quot;&gt;&amp;nbsp; &amp;nbsp; baseQueue: null,&lt;/font&gt;&lt;/div&gt;&lt;div&gt;&lt;font style=&quot;font-size: 14px;&quot;&gt;&amp;nbsp; &amp;nbsp; queue: null,&lt;/font&gt;&lt;/div&gt;&lt;div&gt;&lt;font style=&quot;font-size: 14px;&quot;&gt;&amp;nbsp; &amp;nbsp; next: null,&lt;/font&gt;&lt;/div&gt;&lt;div&gt;&lt;font style=&quot;font-size: 14px;&quot;&gt;&amp;nbsp; };&lt;/font&gt;&lt;/div&gt;" style="rounded=1;whiteSpace=wrap;html=1;align=left;fillColor=#d5e8d4;strokeColor=#82b366;" vertex="1" parent="1">
          <mxGeometry x="696" y="197" width="207" height="176" as="geometry" />
        </mxCell>
        <mxCell id="Mr5ERWoBqYJglzLAQV7F-14" style="edgeStyle=orthogonalEdgeStyle;rounded=0;orthogonalLoop=1;jettySize=auto;html=1;fontSize=13;" edge="1" parent="1" source="Mr5ERWoBqYJglzLAQV7F-9" target="Mr5ERWoBqYJglzLAQV7F-13">
          <mxGeometry relative="1" as="geometry" />
        </mxCell>
        <mxCell id="Mr5ERWoBqYJglzLAQV7F-48" value="next" style="edgeLabel;html=1;align=center;verticalAlign=middle;resizable=0;points=[];fontSize=13;" vertex="1" connectable="0" parent="Mr5ERWoBqYJglzLAQV7F-14">
          <mxGeometry x="-0.0429" y="1" relative="1" as="geometry">
            <mxPoint y="1" as="offset" />
          </mxGeometry>
        </mxCell>
        <mxCell id="Mr5ERWoBqYJglzLAQV7F-28" value="" style="edgeStyle=orthogonalEdgeStyle;rounded=0;orthogonalLoop=1;jettySize=auto;html=1;fontSize=13;" edge="1" parent="1" source="Mr5ERWoBqYJglzLAQV7F-9" target="Mr5ERWoBqYJglzLAQV7F-27">
          <mxGeometry relative="1" as="geometry" />
        </mxCell>
        <mxCell id="Mr5ERWoBqYJglzLAQV7F-34" value="&lt;span style=&quot;text-align: left; text-wrap-mode: wrap; background-color: rgb(251, 251, 251);&quot;&gt;memoizedState&lt;/span&gt;" style="edgeLabel;html=1;align=center;verticalAlign=middle;resizable=0;points=[];fontSize=13;" vertex="1" connectable="0" parent="Mr5ERWoBqYJglzLAQV7F-28">
          <mxGeometry x="-0.0546" y="-2" relative="1" as="geometry">
            <mxPoint y="1" as="offset" />
          </mxGeometry>
        </mxCell>
        <mxCell id="Mr5ERWoBqYJglzLAQV7F-9" value="useEffect" style="whiteSpace=wrap;html=1;rounded=1;fillColor=#fff2cc;strokeColor=#d6b656;fontSize=13;" vertex="1" parent="1">
          <mxGeometry x="963" y="650" width="150" height="50" as="geometry" />
        </mxCell>
        <mxCell id="Mr5ERWoBqYJglzLAQV7F-20" value="" style="edgeStyle=orthogonalEdgeStyle;rounded=0;orthogonalLoop=1;jettySize=auto;html=1;fontSize=13;" edge="1" parent="1" source="Mr5ERWoBqYJglzLAQV7F-13" target="Mr5ERWoBqYJglzLAQV7F-19">
          <mxGeometry relative="1" as="geometry" />
        </mxCell>
        <mxCell id="Mr5ERWoBqYJglzLAQV7F-49" value="next" style="edgeLabel;html=1;align=center;verticalAlign=middle;resizable=0;points=[];fontSize=13;" vertex="1" connectable="0" parent="Mr5ERWoBqYJglzLAQV7F-20">
          <mxGeometry x="-0.0545" relative="1" as="geometry">
            <mxPoint y="1" as="offset" />
          </mxGeometry>
        </mxCell>
        <mxCell id="Mr5ERWoBqYJglzLAQV7F-22" style="edgeStyle=orthogonalEdgeStyle;rounded=0;orthogonalLoop=1;jettySize=auto;html=1;fontSize=13;" edge="1" parent="1" source="Mr5ERWoBqYJglzLAQV7F-13" target="Mr5ERWoBqYJglzLAQV7F-15">
          <mxGeometry relative="1" as="geometry" />
        </mxCell>
        <mxCell id="Mr5ERWoBqYJglzLAQV7F-23" value="&lt;span style=&quot;text-align: left; text-wrap-mode: wrap; background-color: rgb(251, 251, 251);&quot;&gt;memoizedState&lt;/span&gt;" style="edgeLabel;html=1;align=center;verticalAlign=middle;resizable=0;points=[];fontSize=13;" vertex="1" connectable="0" parent="Mr5ERWoBqYJglzLAQV7F-22">
          <mxGeometry x="-0.1478" relative="1" as="geometry">
            <mxPoint as="offset" />
          </mxGeometry>
        </mxCell>
        <mxCell id="Mr5ERWoBqYJglzLAQV7F-13" value="useRef" style="whiteSpace=wrap;html=1;rounded=1;fillColor=#fff2cc;strokeColor=#d6b656;fontSize=13;" vertex="1" parent="1">
          <mxGeometry x="1236" y="645" width="150" height="60" as="geometry" />
        </mxCell>
        <mxCell id="Mr5ERWoBqYJglzLAQV7F-15" value="{current: initialValue}" style="whiteSpace=wrap;html=1;rounded=1;fontSize=13;" vertex="1" parent="1">
          <mxGeometry x="1242" y="820" width="138" height="60" as="geometry" />
        </mxCell>
        <mxCell id="Mr5ERWoBqYJglzLAQV7F-25" value="" style="edgeStyle=orthogonalEdgeStyle;rounded=0;orthogonalLoop=1;jettySize=auto;html=1;fontSize=13;" edge="1" parent="1" target="Mr5ERWoBqYJglzLAQV7F-24">
          <mxGeometry relative="1" as="geometry">
            <mxPoint x="1556" y="705" as="sourcePoint" />
          </mxGeometry>
        </mxCell>
        <mxCell id="Mr5ERWoBqYJglzLAQV7F-26" value="&lt;span style=&quot;text-align: left; text-wrap-mode: wrap; background-color: rgb(251, 251, 251);&quot;&gt;memoizedState&lt;/span&gt;" style="edgeLabel;html=1;align=center;verticalAlign=middle;resizable=0;points=[];fontSize=13;" vertex="1" connectable="0" parent="Mr5ERWoBqYJglzLAQV7F-25">
          <mxGeometry x="-0.113" y="-1" relative="1" as="geometry">
            <mxPoint as="offset" />
          </mxGeometry>
        </mxCell>
        <mxCell id="Mr5ERWoBqYJglzLAQV7F-46" value="" style="edgeStyle=orthogonalEdgeStyle;rounded=0;orthogonalLoop=1;jettySize=auto;html=1;fontSize=13;" edge="1" parent="1" source="Mr5ERWoBqYJglzLAQV7F-19" target="Mr5ERWoBqYJglzLAQV7F-44">
          <mxGeometry relative="1" as="geometry" />
        </mxCell>
        <mxCell id="Mr5ERWoBqYJglzLAQV7F-50" value="next" style="edgeLabel;html=1;align=center;verticalAlign=middle;resizable=0;points=[];fontSize=13;" vertex="1" connectable="0" parent="Mr5ERWoBqYJglzLAQV7F-46">
          <mxGeometry x="-0.1215" y="1" relative="1" as="geometry">
            <mxPoint y="1" as="offset" />
          </mxGeometry>
        </mxCell>
        <mxCell id="Mr5ERWoBqYJglzLAQV7F-19" value="useCallback" style="whiteSpace=wrap;html=1;rounded=1;fillColor=#fff2cc;strokeColor=#d6b656;fontSize=13;" vertex="1" parent="1">
          <mxGeometry x="1496" y="645" width="120" height="60" as="geometry" />
        </mxCell>
        <mxCell id="Mr5ERWoBqYJglzLAQV7F-24" value="[callback, nextDeps]" style="whiteSpace=wrap;html=1;rounded=1;fontSize=13;" vertex="1" parent="1">
          <mxGeometry x="1496" y="820" width="120" height="60" as="geometry" />
        </mxCell>
        <mxCell id="Mr5ERWoBqYJglzLAQV7F-27" value="effect" style="whiteSpace=wrap;html=1;rounded=1;align=center;fillColor=#dae8fc;strokeColor=#6c8ebf;fontSize=13;" vertex="1" parent="1">
          <mxGeometry x="953.6899999999999" y="824.5" width="168.62" height="58" as="geometry" />
        </mxCell>
        <mxCell id="Mr5ERWoBqYJglzLAQV7F-36" value="&lt;font&gt;next&lt;/font&gt;" style="edgeStyle=orthogonalEdgeStyle;rounded=0;orthogonalLoop=1;jettySize=auto;html=1;fontSize=13;" edge="1" parent="1" source="Mr5ERWoBqYJglzLAQV7F-29" target="Mr5ERWoBqYJglzLAQV7F-35">
          <mxGeometry relative="1" as="geometry" />
        </mxCell>
        <mxCell id="Mr5ERWoBqYJglzLAQV7F-29" value="effect" style="whiteSpace=wrap;html=1;rounded=1;fillColor=#dae8fc;strokeColor=#6c8ebf;fontSize=13;" vertex="1" parent="1">
          <mxGeometry x="985.31" y="475" width="120" height="60" as="geometry" />
        </mxCell>
        <mxCell id="Mr5ERWoBqYJglzLAQV7F-33" value="&lt;div&gt;&lt;font style=&quot;font-size: 14px;&quot;&gt;// 一个effect节点updateQueue和useEffect&lt;/font&gt;&lt;/div&gt;&lt;div&gt;&lt;font style=&quot;font-size: 14px;&quot;&gt;// hook中存储的是同一个引用&lt;/font&gt;&lt;/div&gt;&lt;div&gt;&lt;font style=&quot;font-size: 14px;&quot;&gt;const effect: Effect = {&lt;/font&gt;&lt;/div&gt;&lt;div&gt;&lt;font style=&quot;font-size: 14px;&quot;&gt;&amp;nbsp; &amp;nbsp; tag, // useEffect / useLayoutEffect&lt;/font&gt;&lt;/div&gt;&lt;div&gt;&lt;font style=&quot;font-size: 14px;&quot;&gt;&amp;nbsp; &amp;nbsp; create,&lt;/font&gt;&lt;/div&gt;&lt;div&gt;&lt;font style=&quot;font-size: 14px;&quot;&gt;&amp;nbsp; &amp;nbsp; destroy,&lt;/font&gt;&lt;/div&gt;&lt;div&gt;&lt;font style=&quot;font-size: 14px;&quot;&gt;&amp;nbsp; &amp;nbsp; deps,&lt;/font&gt;&lt;/div&gt;&lt;div&gt;&lt;font style=&quot;font-size: 14px;&quot;&gt;&amp;nbsp; &amp;nbsp; next: (null: any),&lt;/font&gt;&lt;/div&gt;&lt;div&gt;&lt;font style=&quot;font-size: 14px;&quot;&gt;&amp;nbsp; }&lt;/font&gt;&lt;/div&gt;" style="whiteSpace=wrap;html=1;rounded=1;align=left;fillColor=#d5e8d4;strokeColor=#82b366;" vertex="1" parent="1">
          <mxGeometry x="1220" y="202" width="308" height="172" as="geometry" />
        </mxCell>
        <mxCell id="Mr5ERWoBqYJglzLAQV7F-38" value="" style="edgeStyle=orthogonalEdgeStyle;rounded=0;orthogonalLoop=1;jettySize=auto;html=1;fontSize=13;" edge="1" parent="1" source="Mr5ERWoBqYJglzLAQV7F-35" target="Mr5ERWoBqYJglzLAQV7F-37">
          <mxGeometry relative="1" as="geometry" />
        </mxCell>
        <mxCell id="Mr5ERWoBqYJglzLAQV7F-39" value="&lt;font&gt;next&lt;/font&gt;" style="edgeLabel;html=1;align=center;verticalAlign=middle;resizable=0;points=[];fontSize=13;" vertex="1" connectable="0" parent="Mr5ERWoBqYJglzLAQV7F-38">
          <mxGeometry x="-0.15" y="1" relative="1" as="geometry">
            <mxPoint y="1" as="offset" />
          </mxGeometry>
        </mxCell>
        <mxCell id="Mr5ERWoBqYJglzLAQV7F-35" value="effect" style="whiteSpace=wrap;html=1;rounded=1;fillColor=#dae8fc;strokeColor=#6c8ebf;fontSize=13;" vertex="1" parent="1">
          <mxGeometry x="1207" y="475" width="120" height="60" as="geometry" />
        </mxCell>
        <mxCell id="Mr5ERWoBqYJglzLAQV7F-40" style="edgeStyle=orthogonalEdgeStyle;rounded=0;orthogonalLoop=1;jettySize=auto;html=1;entryX=0.5;entryY=0;entryDx=0;entryDy=0;fontSize=13;" edge="1" parent="1" source="Mr5ERWoBqYJglzLAQV7F-37" target="Mr5ERWoBqYJglzLAQV7F-29">
          <mxGeometry relative="1" as="geometry">
            <Array as="points">
              <mxPoint x="1496" y="416" />
              <mxPoint x="1045" y="416" />
            </Array>
          </mxGeometry>
        </mxCell>
        <mxCell id="Mr5ERWoBqYJglzLAQV7F-41" value="&lt;font&gt;next&lt;/font&gt;" style="edgeLabel;html=1;align=center;verticalAlign=middle;resizable=0;points=[];fontSize=13;" vertex="1" connectable="0" parent="Mr5ERWoBqYJglzLAQV7F-40">
          <mxGeometry x="-0.0471" y="1" relative="1" as="geometry">
            <mxPoint x="-15" as="offset" />
          </mxGeometry>
        </mxCell>
        <mxCell id="Mr5ERWoBqYJglzLAQV7F-37" value="effect" style="whiteSpace=wrap;html=1;rounded=1;fillColor=#dae8fc;strokeColor=#6c8ebf;fontSize=13;" vertex="1" parent="1">
          <mxGeometry x="1441" y="473" width="120" height="62" as="geometry" />
        </mxCell>
        <mxCell id="Mr5ERWoBqYJglzLAQV7F-42" value="" style="edgeStyle=orthogonalEdgeStyle;rounded=0;orthogonalLoop=1;jettySize=auto;html=1;fontSize=13;" edge="1" parent="1" source="Mr5ERWoBqYJglzLAQV7F-44" target="Mr5ERWoBqYJglzLAQV7F-45">
          <mxGeometry relative="1" as="geometry" />
        </mxCell>
        <mxCell id="Mr5ERWoBqYJglzLAQV7F-43" value="&lt;span style=&quot;text-align: left; text-wrap-mode: wrap; background-color: rgb(251, 251, 251);&quot;&gt;memoizedState&lt;/span&gt;" style="edgeLabel;html=1;align=center;verticalAlign=middle;resizable=0;points=[];fontSize=13;" vertex="1" connectable="0" parent="Mr5ERWoBqYJglzLAQV7F-42">
          <mxGeometry x="-0.113" y="-1" relative="1" as="geometry">
            <mxPoint as="offset" />
          </mxGeometry>
        </mxCell>
        <mxCell id="Mr5ERWoBqYJglzLAQV7F-44" value="useMemo" style="whiteSpace=wrap;html=1;rounded=1;fillColor=#fff2cc;strokeColor=#d6b656;fontSize=13;" vertex="1" parent="1">
          <mxGeometry x="1747" y="645" width="120" height="60" as="geometry" />
        </mxCell>
        <mxCell id="Mr5ERWoBqYJglzLAQV7F-45" value="[nextValue, nextDeps]" style="whiteSpace=wrap;html=1;rounded=1;fontSize=13;" vertex="1" parent="1">
          <mxGeometry x="1747" y="817" width="120" height="60" as="geometry" />
        </mxCell>
        <mxCell id="Mr5ERWoBqYJglzLAQV7F-51" value="state" style="whiteSpace=wrap;html=1;rounded=1;fontSize=13;" vertex="1" parent="1">
          <mxGeometry x="701.25" y="826.5" width="139.5" height="56" as="geometry" />
        </mxCell>
        <mxCell id="Mr5ERWoBqYJglzLAQV7F-63" value="" style="edgeStyle=orthogonalEdgeStyle;rounded=0;orthogonalLoop=1;jettySize=auto;html=1;fontSize=13;" edge="1" parent="1" source="Mr5ERWoBqYJglzLAQV7F-55" target="Mr5ERWoBqYJglzLAQV7F-62">
          <mxGeometry relative="1" as="geometry" />
        </mxCell>
        <mxCell id="Mr5ERWoBqYJglzLAQV7F-66" value="&lt;font&gt;pending&lt;/font&gt;" style="edgeLabel;html=1;align=center;verticalAlign=middle;resizable=0;points=[];fontSize=13;" vertex="1" connectable="0" parent="Mr5ERWoBqYJglzLAQV7F-63">
          <mxGeometry x="-0.0625" y="1" relative="1" as="geometry">
            <mxPoint as="offset" />
          </mxGeometry>
        </mxCell>
        <mxCell id="Mr5ERWoBqYJglzLAQV7F-55" value="Queue" style="rounded=1;whiteSpace=wrap;html=1;fontSize=13;" vertex="1" parent="1">
          <mxGeometry x="483" y="823.5" width="120" height="60" as="geometry" />
        </mxCell>
        <mxCell id="Mr5ERWoBqYJglzLAQV7F-58" value="&lt;font color=&quot;#ff3333&quot; style=&quot;font-size: 19px;&quot;&gt;hook&lt;/font&gt;" style="text;html=1;align=center;verticalAlign=middle;whiteSpace=wrap;rounded=0;" vertex="1" parent="1">
          <mxGeometry x="835" y="317" width="60" height="43" as="geometry" />
        </mxCell>
        <mxCell id="Mr5ERWoBqYJglzLAQV7F-59" value="&lt;font color=&quot;#ff3333&quot;&gt;&lt;span style=&quot;font-size: 19px;&quot;&gt;effect&lt;/span&gt;&lt;/font&gt;" style="text;html=1;align=center;verticalAlign=middle;whiteSpace=wrap;rounded=0;" vertex="1" parent="1">
          <mxGeometry x="1444" y="323" width="60" height="31" as="geometry" />
        </mxCell>
        <mxCell id="Mr5ERWoBqYJglzLAQV7F-60" value="&lt;div&gt;&lt;span style=&quot;font-size: 14px;&quot;&gt;const queue: = {&lt;/span&gt;&lt;/div&gt;&lt;div&gt;&lt;span style=&quot;font-size: 14px;&quot;&gt;&amp;nbsp; &amp;nbsp; pending: null, // 待处理的&lt;/span&gt;&lt;/div&gt;&lt;div&gt;&lt;span style=&quot;font-size: 14px;&quot;&gt;&amp;nbsp; &amp;nbsp; interleaved: null, // 临时的&lt;/span&gt;&lt;/div&gt;&lt;div&gt;&lt;span style=&quot;font-size: 14px;&quot;&gt;&amp;nbsp; &amp;nbsp; lanes: NoLanes, // 优先级&lt;/span&gt;&lt;/div&gt;&lt;div&gt;&lt;span style=&quot;font-size: 14px;&quot;&gt;&amp;nbsp; &amp;nbsp; dispatch: null,&lt;/span&gt;&lt;/div&gt;&lt;div&gt;&lt;span style=&quot;font-size: 14px;&quot;&gt;&amp;nbsp; &amp;nbsp; lastRenderedReducer: basicStateReducer,&lt;/span&gt;&lt;/div&gt;&lt;div&gt;&lt;span style=&quot;font-size: 14px;&quot;&gt;&amp;nbsp; &amp;nbsp; lastRenderedState: (initialState: any),&lt;/span&gt;&lt;/div&gt;&lt;div&gt;&lt;span style=&quot;font-size: 14px;&quot;&gt;&amp;nbsp; };&lt;/span&gt;&lt;/div&gt;" style="rounded=1;whiteSpace=wrap;html=1;align=left;fillColor=#d5e8d4;strokeColor=#82b366;" vertex="1" parent="1">
          <mxGeometry x="99" y="521" width="321" height="214" as="geometry" />
        </mxCell>
        <mxCell id="Mr5ERWoBqYJglzLAQV7F-61" value="&lt;font color=&quot;#ff3333&quot; style=&quot;font-size: 19px;&quot;&gt;queue&lt;/font&gt;" style="text;html=1;align=center;verticalAlign=middle;whiteSpace=wrap;rounded=0;" vertex="1" parent="1">
          <mxGeometry x="354" y="684" width="60" height="43" as="geometry" />
        </mxCell>
        <mxCell id="Mr5ERWoBqYJglzLAQV7F-68" value="" style="edgeStyle=orthogonalEdgeStyle;rounded=0;orthogonalLoop=1;jettySize=auto;html=1;fontSize=13;" edge="1" parent="1" source="Mr5ERWoBqYJglzLAQV7F-62" target="Mr5ERWoBqYJglzLAQV7F-67">
          <mxGeometry relative="1" as="geometry" />
        </mxCell>
        <mxCell id="Mr5ERWoBqYJglzLAQV7F-71" value="&lt;font&gt;next&lt;/font&gt;" style="edgeLabel;html=1;align=center;verticalAlign=middle;resizable=0;points=[];fontSize=13;" vertex="1" connectable="0" parent="Mr5ERWoBqYJglzLAQV7F-68">
          <mxGeometry x="-0.0393" y="1" relative="1" as="geometry">
            <mxPoint y="1" as="offset" />
          </mxGeometry>
        </mxCell>
        <mxCell id="Mr5ERWoBqYJglzLAQV7F-62" value="Update" style="whiteSpace=wrap;html=1;rounded=1;fillColor=#d0cee2;strokeColor=#56517e;fontSize=13;" vertex="1" parent="1">
          <mxGeometry x="483" y="1024" width="120" height="60" as="geometry" />
        </mxCell>
        <mxCell id="Mr5ERWoBqYJglzLAQV7F-64" value="&lt;div&gt;&lt;span style=&quot;font-size: 14px;&quot;&gt;// 创建一个update更新&lt;/span&gt;&lt;span style=&quot;font-size: 14px;&quot;&gt;&lt;/span&gt;&lt;/div&gt;&lt;div&gt;&lt;span style=&quot;font-size: 14px;&quot;&gt;const update: Update&amp;lt;S, A&amp;gt; = {&lt;/span&gt;&lt;/div&gt;&lt;div&gt;&lt;span style=&quot;font-size: 14px;&quot;&gt;&amp;nbsp; &amp;nbsp; lane,&lt;/span&gt;&lt;/div&gt;&lt;div&gt;&lt;span style=&quot;font-size: 14px;&quot;&gt;&amp;nbsp; &amp;nbsp; action,&lt;/span&gt;&lt;/div&gt;&lt;div&gt;&lt;span style=&quot;font-size: 14px;&quot;&gt;&amp;nbsp; &amp;nbsp; hasEagerState: false,&lt;/span&gt;&lt;/div&gt;&lt;div&gt;&lt;span style=&quot;font-size: 14px;&quot;&gt;&amp;nbsp; &amp;nbsp; eagerState: null,&lt;/span&gt;&lt;/div&gt;&lt;div&gt;&lt;span style=&quot;font-size: 14px;&quot;&gt;&amp;nbsp; &amp;nbsp; next: (null: any),&lt;/span&gt;&lt;/div&gt;&lt;div&gt;&lt;span style=&quot;font-size: 14px;&quot;&gt;&amp;nbsp; };&lt;/span&gt;&lt;/div&gt;" style="rounded=1;whiteSpace=wrap;html=1;align=left;fillColor=#d5e8d4;strokeColor=#82b366;" vertex="1" parent="1">
          <mxGeometry x="99" y="808" width="321" height="214" as="geometry" />
        </mxCell>
        <mxCell id="Mr5ERWoBqYJglzLAQV7F-65" value="&lt;font color=&quot;#ff3333&quot; style=&quot;font-size: 19px;&quot;&gt;update&lt;/font&gt;" style="text;html=1;align=center;verticalAlign=middle;whiteSpace=wrap;rounded=0;" vertex="1" parent="1">
          <mxGeometry x="344" y="960" width="60" height="43" as="geometry" />
        </mxCell>
        <mxCell id="Mr5ERWoBqYJglzLAQV7F-70" value="" style="edgeStyle=orthogonalEdgeStyle;rounded=0;orthogonalLoop=1;jettySize=auto;html=1;fontSize=13;" edge="1" parent="1" source="Mr5ERWoBqYJglzLAQV7F-67" target="Mr5ERWoBqYJglzLAQV7F-69">
          <mxGeometry relative="1" as="geometry" />
        </mxCell>
        <mxCell id="Mr5ERWoBqYJglzLAQV7F-72" value="&lt;font&gt;next&lt;/font&gt;" style="edgeLabel;html=1;align=center;verticalAlign=middle;resizable=0;points=[];fontSize=13;" vertex="1" connectable="0" parent="Mr5ERWoBqYJglzLAQV7F-70">
          <mxGeometry x="0.0279" y="-1" relative="1" as="geometry">
            <mxPoint y="1" as="offset" />
          </mxGeometry>
        </mxCell>
        <mxCell id="Mr5ERWoBqYJglzLAQV7F-67" value="Update" style="whiteSpace=wrap;html=1;rounded=1;fillColor=#d0cee2;strokeColor=#56517e;fontSize=13;" vertex="1" parent="1">
          <mxGeometry x="708" y="1024" width="120" height="60" as="geometry" />
        </mxCell>
        <mxCell id="Mr5ERWoBqYJglzLAQV7F-73" style="edgeStyle=orthogonalEdgeStyle;rounded=0;orthogonalLoop=1;jettySize=auto;html=1;entryX=0.5;entryY=1;entryDx=0;entryDy=0;fontSize=13;" edge="1" parent="1" source="Mr5ERWoBqYJglzLAQV7F-69" target="Mr5ERWoBqYJglzLAQV7F-62">
          <mxGeometry relative="1" as="geometry">
            <Array as="points">
              <mxPoint x="978" y="1121" />
              <mxPoint x="543" y="1121" />
            </Array>
          </mxGeometry>
        </mxCell>
        <mxCell id="Mr5ERWoBqYJglzLAQV7F-74" value="&lt;font&gt;next&lt;/font&gt;" style="edgeLabel;html=1;align=center;verticalAlign=middle;resizable=0;points=[];fontSize=13;" vertex="1" connectable="0" parent="Mr5ERWoBqYJglzLAQV7F-73">
          <mxGeometry x="-0.0226" y="-1" relative="1" as="geometry">
            <mxPoint x="1" as="offset" />
          </mxGeometry>
        </mxCell>
        <mxCell id="Mr5ERWoBqYJglzLAQV7F-69" value="Update" style="whiteSpace=wrap;html=1;rounded=1;fillColor=#d0cee2;strokeColor=#56517e;fontSize=13;" vertex="1" parent="1">
          <mxGeometry x="956" y="1024" width="120" height="60" as="geometry" />
        </mxCell>
      </root>
    </mxGraphModel>
  </diagram>
</mxfile>
